# xmcd
#
# Track frame offsets: 
#        150
#        18365
#        32240
#        55435
#        69475
#        84475
#        107952
#        137510
#        153495
#        166682
#        179180
#        199650
#        212092
#        235447
#        256042
#        269202
#        291550
#        309907
#
# Disc length: 4439 seconds
#
# Revision: 2
# Processed by: cddbd v1.5.2PL0 Copyright (c) Steve Scherf et al.
# Submitted via: ExactAudioCopy v0.99pb5
#
DISCID=0f115512
DTITLE=Ulf Lundell - Nar Jag Kysser Havet - Det Basta 1 75-84 [CD 1) {
DTITLE=HDCD}
DYEAR=2006
DGENRE=Rock
TTITLE0=Stockholms City
TTITLE1=Då Kommer Jag Och Värmer Dej
TTITLE2=Sextisju, Sextisju
TTITLE3=Nar Duellen Är Över
TTITLE4=Jag Går På Promenaden
TTITLE5=Bente
TTITLE6=Törst
TTITLE7=Och Går En Stund På Jorden
TTITLE8=Som En Syster
TTITLE9=Nådens År
TTITLE10=Snön Faller Och Vi Med Den
TTITLE11=Kärlekens Hundar
TTITLE12=Kitsch
TTITLE13=(Oh La La) Jag Vill Ha Dej
TTITLE14=Barn
TTITLE15=Håll Mej!...Åh, Ingenting
TTITLE16=Rom I Regnet
TTITLE17=Ute På Tippen
EXTD=
EXTT0=
EXTT1=
EXTT2=
EXTT3=
EXTT4=
EXTT5=
EXTT6=
EXTT7=
EXTT8=
EXTT9=
EXTT10=
EXTT11=
EXTT12=
EXTT13=
EXTT14=
EXTT15=
EXTT16=
EXTT17=
PLAYORDER=
